# xmcd
#
# Track frame offsets: 
#        150
#        17746
#        33137
#        49759
#        67077
#        82418
#        104616
#        122274
#        133686
#        155512
#
# Disc length: 2236 seconds
#
# Revision: 0
# Processed by: cddbd v1.5.2PL0 Copyright (c) Steve Scherf et al.
# Submitted via: ExactAudioCopy v0.95b4
#
DISCID=8508ba0a
DTITLE=Tami Neilson - Red Dirt Angle
DYEAR=2008
DGENRE=Country
TTITLE0=One Bad Day
TTITLE1=Same Old Devil
TTITLE2=Red Dirt Angel
TTITLE3=Cigarette
TTITLE4=Missin' the Groom
TTITLE5=Hey Beautiful
TTITLE6=Comin' Around
TTITLE7=Sister Cash (Feat. Joanne Cash)
TTITLE8=She Dances with Angels
TTITLE9=Favouritest Thing
EXTD=
EXTT0=
EXTT1=
EXTT2=
EXTT3=
EXTT4=
EXTT5=
EXTT6=
EXTT7=
EXTT8=
EXTT9=
PLAYORDER=
